<mxfile host="app.diagrams.net" modified="2024-06-05T07:30:16.242Z" agent="Mozilla/5.0 (X11; Linux x86_64) AppleWebKit/537.36 (KHTML, like Gecko) Chrome/125.0.0.0 Safari/537.36" etag="l_x3jyssRWBxlFaBTmFg" version="24.4.13" type="device">
  <diagram name="Page-1" id="jvL9EHot0i1AdAjSfj9m">
    <mxGraphModel dx="2749" dy="1597" grid="0" gridSize="10" guides="1" tooltips="1" connect="1" arrows="1" fold="1" page="0" pageScale="1" pageWidth="827" pageHeight="1169" math="0" shadow="0">
      <root>
        <mxCell id="0" />
        <mxCell id="1" parent="0" />
        <mxCell id="HYcG6-YE73OWMHDjG5-3-58" style="edgeStyle=none;curved=1;rounded=0;orthogonalLoop=1;jettySize=auto;html=1;exitX=1;exitY=0.5;exitDx=0;exitDy=0;entryX=0;entryY=0.5;entryDx=0;entryDy=0;fontSize=12;startSize=8;endSize=8;" edge="1" parent="1" source="HYcG6-YE73OWMHDjG5-3-3" target="HYcG6-YE73OWMHDjG5-3-41">
          <mxGeometry relative="1" as="geometry" />
        </mxCell>
        <mxCell id="HYcG6-YE73OWMHDjG5-3-3" value="Other data sources" style="shape=internalStorage;whiteSpace=wrap;html=1;backgroundOutline=1;" vertex="1" parent="1">
          <mxGeometry x="-556" y="516" width="169" height="80" as="geometry" />
        </mxCell>
        <mxCell id="HYcG6-YE73OWMHDjG5-3-47" style="edgeStyle=none;curved=1;rounded=0;orthogonalLoop=1;jettySize=auto;html=1;entryX=0;entryY=0.5;entryDx=0;entryDy=0;fontSize=12;startSize=8;endSize=8;" edge="1" parent="1" source="HYcG6-YE73OWMHDjG5-3-4" target="HYcG6-YE73OWMHDjG5-3-37">
          <mxGeometry relative="1" as="geometry" />
        </mxCell>
        <mxCell id="HYcG6-YE73OWMHDjG5-3-4" value="" style="dashed=0;outlineConnect=0;html=1;align=center;labelPosition=center;verticalLabelPosition=bottom;verticalAlign=top;shape=mxgraph.webicons.adobe_pdf;fillColor=#F40C0C;gradientColor=#610603" vertex="1" parent="1">
          <mxGeometry x="-524" y="310" width="102.4" height="102.4" as="geometry" />
        </mxCell>
        <mxCell id="HYcG6-YE73OWMHDjG5-3-5" value="Unstructured Data" style="text;html=1;align=center;verticalAlign=middle;whiteSpace=wrap;rounded=0;fontSize=22;" vertex="1" parent="1">
          <mxGeometry x="-574" y="423" width="190" height="30" as="geometry" />
        </mxCell>
        <mxCell id="HYcG6-YE73OWMHDjG5-3-45" style="edgeStyle=none;curved=1;rounded=0;orthogonalLoop=1;jettySize=auto;html=1;exitX=1;exitY=0.5;exitDx=0;exitDy=0;entryX=0;entryY=0.75;entryDx=0;entryDy=0;fontSize=12;startSize=8;endSize=8;" edge="1" parent="1" source="HYcG6-YE73OWMHDjG5-3-6" target="HYcG6-YE73OWMHDjG5-3-29">
          <mxGeometry relative="1" as="geometry" />
        </mxCell>
        <mxCell id="HYcG6-YE73OWMHDjG5-3-6" value="" style="shape=image;html=1;verticalAlign=top;verticalLabelPosition=bottom;labelBackgroundColor=#ffffff;imageAspect=0;aspect=fixed;image=https://cdn4.iconfinder.com/data/icons/file-extension-3/115/eps_extension_file_name-14-128.png" vertex="1" parent="1">
          <mxGeometry x="-537" y="-54" width="128" height="128" as="geometry" />
        </mxCell>
        <mxCell id="HYcG6-YE73OWMHDjG5-3-8" value="Structured Data" style="text;html=1;align=center;verticalAlign=middle;whiteSpace=wrap;rounded=0;fontSize=22;" vertex="1" parent="1">
          <mxGeometry x="-568" y="85" width="173" height="30" as="geometry" />
        </mxCell>
        <mxCell id="HYcG6-YE73OWMHDjG5-3-46" style="edgeStyle=none;curved=1;rounded=0;orthogonalLoop=1;jettySize=auto;html=1;fontSize=12;startSize=8;endSize=8;" edge="1" parent="1" source="HYcG6-YE73OWMHDjG5-3-9">
          <mxGeometry relative="1" as="geometry">
            <mxPoint x="16.142857142857338" y="270.14285714285734" as="targetPoint" />
          </mxGeometry>
        </mxCell>
        <mxCell id="HYcG6-YE73OWMHDjG5-3-9" value="" style="html=1;verticalLabelPosition=bottom;align=center;labelBackgroundColor=#ffffff;verticalAlign=top;strokeWidth=2;strokeColor=#0080F0;shadow=0;dashed=0;shape=mxgraph.ios7.icons.mail;" vertex="1" parent="1">
          <mxGeometry x="-524" y="156" width="109" height="68" as="geometry" />
        </mxCell>
        <mxCell id="HYcG6-YE73OWMHDjG5-3-10" value="Email Data" style="text;html=1;align=center;verticalAlign=middle;whiteSpace=wrap;rounded=0;fontSize=22;" vertex="1" parent="1">
          <mxGeometry x="-532" y="252" width="127" height="30" as="geometry" />
        </mxCell>
        <mxCell id="HYcG6-YE73OWMHDjG5-3-24" value="Assets" style="childLayout=tableLayout;recursiveResize=0;strokeColor=#98bf21;fillColor=#A7C942;shadow=1;" vertex="1" parent="1">
          <mxGeometry x="-143" y="145" width="344" height="216" as="geometry" />
        </mxCell>
        <mxCell id="HYcG6-YE73OWMHDjG5-3-25" style="shape=tableRow;horizontal=0;startSize=0;swimlaneHead=0;swimlaneBody=0;top=0;left=0;bottom=0;right=0;dropTarget=0;collapsible=0;recursiveResize=0;expand=0;fontStyle=0;strokeColor=inherit;fillColor=#ffffff;" vertex="1" parent="HYcG6-YE73OWMHDjG5-3-24">
          <mxGeometry width="344" height="45" as="geometry" />
        </mxCell>
        <mxCell id="HYcG6-YE73OWMHDjG5-3-26" value="Title 1" style="connectable=0;recursiveResize=0;strokeColor=inherit;fillColor=#A7C942;align=center;fontStyle=1;fontColor=#FFFFFF;html=1;" vertex="1" parent="HYcG6-YE73OWMHDjG5-3-25">
          <mxGeometry width="114" height="45" as="geometry">
            <mxRectangle width="114" height="45" as="alternateBounds" />
          </mxGeometry>
        </mxCell>
        <mxCell id="HYcG6-YE73OWMHDjG5-3-27" value="Title 2" style="connectable=0;recursiveResize=0;strokeColor=inherit;fillColor=#A7C942;align=center;fontStyle=1;fontColor=#FFFFFF;html=1;" vertex="1" parent="HYcG6-YE73OWMHDjG5-3-25">
          <mxGeometry x="114" width="116" height="45" as="geometry">
            <mxRectangle width="116" height="45" as="alternateBounds" />
          </mxGeometry>
        </mxCell>
        <mxCell id="HYcG6-YE73OWMHDjG5-3-28" value="Title 3" style="connectable=0;recursiveResize=0;strokeColor=inherit;fillColor=#A7C942;align=center;fontStyle=1;fontColor=#FFFFFF;html=1;" vertex="1" parent="HYcG6-YE73OWMHDjG5-3-25">
          <mxGeometry x="230" width="114" height="45" as="geometry">
            <mxRectangle width="114" height="45" as="alternateBounds" />
          </mxGeometry>
        </mxCell>
        <mxCell id="HYcG6-YE73OWMHDjG5-3-29" value="" style="shape=tableRow;horizontal=0;startSize=0;swimlaneHead=0;swimlaneBody=0;top=0;left=0;bottom=0;right=0;dropTarget=0;collapsible=0;recursiveResize=0;expand=0;fontStyle=0;strokeColor=inherit;fillColor=#ffffff;" vertex="1" parent="HYcG6-YE73OWMHDjG5-3-24">
          <mxGeometry y="45" width="344" height="43" as="geometry" />
        </mxCell>
        <mxCell id="HYcG6-YE73OWMHDjG5-3-30" value="Value 1" style="connectable=0;recursiveResize=0;strokeColor=inherit;fillColor=inherit;align=center;whiteSpace=wrap;html=1;" vertex="1" parent="HYcG6-YE73OWMHDjG5-3-29">
          <mxGeometry width="114" height="43" as="geometry">
            <mxRectangle width="114" height="43" as="alternateBounds" />
          </mxGeometry>
        </mxCell>
        <mxCell id="HYcG6-YE73OWMHDjG5-3-31" value="Value 2" style="connectable=0;recursiveResize=0;strokeColor=inherit;fillColor=inherit;align=center;whiteSpace=wrap;html=1;" vertex="1" parent="HYcG6-YE73OWMHDjG5-3-29">
          <mxGeometry x="114" width="116" height="43" as="geometry">
            <mxRectangle width="116" height="43" as="alternateBounds" />
          </mxGeometry>
        </mxCell>
        <mxCell id="HYcG6-YE73OWMHDjG5-3-32" value="Value 3" style="connectable=0;recursiveResize=0;strokeColor=inherit;fillColor=inherit;align=center;whiteSpace=wrap;html=1;" vertex="1" parent="HYcG6-YE73OWMHDjG5-3-29">
          <mxGeometry x="230" width="114" height="43" as="geometry">
            <mxRectangle width="114" height="43" as="alternateBounds" />
          </mxGeometry>
        </mxCell>
        <mxCell id="HYcG6-YE73OWMHDjG5-3-33" value="" style="shape=tableRow;horizontal=0;startSize=0;swimlaneHead=0;swimlaneBody=0;top=0;left=0;bottom=0;right=0;dropTarget=0;collapsible=0;recursiveResize=0;expand=0;fontStyle=1;strokeColor=inherit;fillColor=#EAF2D3;" vertex="1" parent="HYcG6-YE73OWMHDjG5-3-24">
          <mxGeometry y="88" width="344" height="42" as="geometry" />
        </mxCell>
        <mxCell id="HYcG6-YE73OWMHDjG5-3-34" value="Value 4" style="connectable=0;recursiveResize=0;strokeColor=inherit;fillColor=inherit;whiteSpace=wrap;html=1;" vertex="1" parent="HYcG6-YE73OWMHDjG5-3-33">
          <mxGeometry width="114" height="42" as="geometry">
            <mxRectangle width="114" height="42" as="alternateBounds" />
          </mxGeometry>
        </mxCell>
        <mxCell id="HYcG6-YE73OWMHDjG5-3-35" value="Value 5" style="connectable=0;recursiveResize=0;strokeColor=inherit;fillColor=inherit;whiteSpace=wrap;html=1;" vertex="1" parent="HYcG6-YE73OWMHDjG5-3-33">
          <mxGeometry x="114" width="116" height="42" as="geometry">
            <mxRectangle width="116" height="42" as="alternateBounds" />
          </mxGeometry>
        </mxCell>
        <mxCell id="HYcG6-YE73OWMHDjG5-3-36" value="Value 6" style="connectable=0;recursiveResize=0;strokeColor=inherit;fillColor=inherit;whiteSpace=wrap;html=1;" vertex="1" parent="HYcG6-YE73OWMHDjG5-3-33">
          <mxGeometry x="230" width="114" height="42" as="geometry">
            <mxRectangle width="114" height="42" as="alternateBounds" />
          </mxGeometry>
        </mxCell>
        <mxCell id="HYcG6-YE73OWMHDjG5-3-37" value="" style="shape=tableRow;horizontal=0;startSize=0;swimlaneHead=0;swimlaneBody=0;top=0;left=0;bottom=0;right=0;dropTarget=0;collapsible=0;recursiveResize=0;expand=0;fontStyle=0;strokeColor=inherit;fillColor=#ffffff;" vertex="1" parent="HYcG6-YE73OWMHDjG5-3-24">
          <mxGeometry y="130" width="344" height="44" as="geometry" />
        </mxCell>
        <mxCell id="HYcG6-YE73OWMHDjG5-3-38" value="Value 7" style="connectable=0;recursiveResize=0;strokeColor=inherit;fillColor=inherit;fontStyle=0;align=center;whiteSpace=wrap;html=1;" vertex="1" parent="HYcG6-YE73OWMHDjG5-3-37">
          <mxGeometry width="114" height="44" as="geometry">
            <mxRectangle width="114" height="44" as="alternateBounds" />
          </mxGeometry>
        </mxCell>
        <mxCell id="HYcG6-YE73OWMHDjG5-3-39" value="Value 8" style="connectable=0;recursiveResize=0;strokeColor=inherit;fillColor=inherit;fontStyle=0;align=center;whiteSpace=wrap;html=1;" vertex="1" parent="HYcG6-YE73OWMHDjG5-3-37">
          <mxGeometry x="114" width="116" height="44" as="geometry">
            <mxRectangle width="116" height="44" as="alternateBounds" />
          </mxGeometry>
        </mxCell>
        <mxCell id="HYcG6-YE73OWMHDjG5-3-40" value="Value 9" style="connectable=0;recursiveResize=0;strokeColor=inherit;fillColor=inherit;fontStyle=0;align=center;whiteSpace=wrap;html=1;" vertex="1" parent="HYcG6-YE73OWMHDjG5-3-37">
          <mxGeometry x="230" width="114" height="44" as="geometry">
            <mxRectangle width="114" height="44" as="alternateBounds" />
          </mxGeometry>
        </mxCell>
        <mxCell id="HYcG6-YE73OWMHDjG5-3-41" value="" style="shape=tableRow;horizontal=0;startSize=0;swimlaneHead=0;swimlaneBody=0;top=0;left=0;bottom=0;right=0;dropTarget=0;collapsible=0;recursiveResize=0;expand=0;fontStyle=1;strokeColor=inherit;fillColor=#EAF2D3;" vertex="1" parent="HYcG6-YE73OWMHDjG5-3-24">
          <mxGeometry y="174" width="344" height="42" as="geometry" />
        </mxCell>
        <mxCell id="HYcG6-YE73OWMHDjG5-3-42" value="Value 10" style="connectable=0;recursiveResize=0;strokeColor=inherit;fillColor=inherit;whiteSpace=wrap;html=1;" vertex="1" parent="HYcG6-YE73OWMHDjG5-3-41">
          <mxGeometry width="114" height="42" as="geometry">
            <mxRectangle width="114" height="42" as="alternateBounds" />
          </mxGeometry>
        </mxCell>
        <mxCell id="HYcG6-YE73OWMHDjG5-3-43" value="Value 11" style="connectable=0;recursiveResize=0;strokeColor=inherit;fillColor=inherit;whiteSpace=wrap;html=1;" vertex="1" parent="HYcG6-YE73OWMHDjG5-3-41">
          <mxGeometry x="114" width="116" height="42" as="geometry">
            <mxRectangle width="116" height="42" as="alternateBounds" />
          </mxGeometry>
        </mxCell>
        <mxCell id="HYcG6-YE73OWMHDjG5-3-44" value="Value 12" style="connectable=0;recursiveResize=0;strokeColor=inherit;fillColor=inherit;whiteSpace=wrap;html=1;" vertex="1" parent="HYcG6-YE73OWMHDjG5-3-41">
          <mxGeometry x="230" width="114" height="42" as="geometry">
            <mxRectangle width="114" height="42" as="alternateBounds" />
          </mxGeometry>
        </mxCell>
        <mxCell id="HYcG6-YE73OWMHDjG5-3-54" style="edgeStyle=none;curved=1;rounded=0;orthogonalLoop=1;jettySize=auto;html=1;fontSize=12;startSize=8;endSize=8;" edge="1" parent="1" source="HYcG6-YE73OWMHDjG5-3-49">
          <mxGeometry relative="1" as="geometry">
            <mxPoint x="815.8571428571431" y="252.99999999999977" as="targetPoint" />
          </mxGeometry>
        </mxCell>
        <mxCell id="HYcG6-YE73OWMHDjG5-3-49" value="" style="image;html=1;image=img/lib/clip_art/computers/Database_128x128.png" vertex="1" parent="1">
          <mxGeometry x="330" y="175" width="262" height="156" as="geometry" />
        </mxCell>
        <mxCell id="HYcG6-YE73OWMHDjG5-3-50" style="edgeStyle=none;curved=1;rounded=0;orthogonalLoop=1;jettySize=auto;html=1;exitX=1;exitY=0.5;exitDx=0;exitDy=0;fontSize=12;startSize=8;endSize=8;" edge="1" parent="1" source="HYcG6-YE73OWMHDjG5-3-33" target="HYcG6-YE73OWMHDjG5-3-49">
          <mxGeometry relative="1" as="geometry" />
        </mxCell>
        <mxCell id="HYcG6-YE73OWMHDjG5-3-51" value="csv" style="text;html=1;align=center;verticalAlign=middle;resizable=0;points=[];autosize=1;strokeColor=none;fillColor=none;fontSize=16;" vertex="1" parent="1">
          <mxGeometry x="-14.5" y="398.5" width="42" height="31" as="geometry" />
        </mxCell>
        <mxCell id="HYcG6-YE73OWMHDjG5-3-52" value="Aura DB" style="text;html=1;align=center;verticalAlign=middle;resizable=0;points=[];autosize=1;strokeColor=none;fillColor=none;fontSize=22;" vertex="1" parent="1">
          <mxGeometry x="411" y="347" width="101" height="38" as="geometry" />
        </mxCell>
        <mxCell id="HYcG6-YE73OWMHDjG5-3-53" value="&lt;font style=&quot;font-size: 22px;&quot;&gt;REST APIs&lt;/font&gt;" style="rounded=1;whiteSpace=wrap;html=1;" vertex="1" parent="1">
          <mxGeometry x="817" y="132" width="303" height="230" as="geometry" />
        </mxCell>
        <mxCell id="HYcG6-YE73OWMHDjG5-3-55" style="edgeStyle=none;curved=1;rounded=0;orthogonalLoop=1;jettySize=auto;html=1;exitX=1;exitY=0.25;exitDx=0;exitDy=0;entryX=0.01;entryY=0.161;entryDx=0;entryDy=0;entryPerimeter=0;fontSize=12;startSize=8;endSize=8;" edge="1" parent="1" source="HYcG6-YE73OWMHDjG5-3-49" target="HYcG6-YE73OWMHDjG5-3-53">
          <mxGeometry relative="1" as="geometry" />
        </mxCell>
        <mxCell id="HYcG6-YE73OWMHDjG5-3-56" style="edgeStyle=none;curved=1;rounded=0;orthogonalLoop=1;jettySize=auto;html=1;exitX=1;exitY=0.75;exitDx=0;exitDy=0;entryX=-0.013;entryY=0.832;entryDx=0;entryDy=0;entryPerimeter=0;fontSize=12;startSize=8;endSize=8;" edge="1" parent="1" source="HYcG6-YE73OWMHDjG5-3-49" target="HYcG6-YE73OWMHDjG5-3-53">
          <mxGeometry relative="1" as="geometry" />
        </mxCell>
        <mxCell id="HYcG6-YE73OWMHDjG5-3-57" value="Cyph&lt;span style=&quot;background-color: initial; font-size: 20px;&quot;&gt;er Queris&lt;/span&gt;" style="text;html=1;align=center;verticalAlign=middle;resizable=0;points=[];autosize=1;strokeColor=none;fillColor=none;fontSize=20;" vertex="1" parent="1">
          <mxGeometry x="604" y="127" width="147" height="36" as="geometry" />
        </mxCell>
      </root>
    </mxGraphModel>
  </diagram>
</mxfile>
